<mxfile host="65bd71144e">
    <diagram id="a-sx9r4jShqqoz4hWvOa" name="Page-1">
        <mxGraphModel dx="2504" dy="538" grid="1" gridSize="10" guides="1" tooltips="1" connect="1" arrows="1" fold="1" page="1" pageScale="1" pageWidth="850" pageHeight="1100" math="0" shadow="0">
            <root>
                <mxCell id="0"/>
                <mxCell id="1" parent="0"/>
                <mxCell id="2" value="" style="rounded=0;whiteSpace=wrap;html=1;" parent="1" vertex="1">
                    <mxGeometry x="20" y="30" width="740" height="540" as="geometry"/>
                </mxCell>
                <mxCell id="3" value="" style="rounded=0;whiteSpace=wrap;html=1;" parent="1" vertex="1">
                    <mxGeometry x="50" y="50" width="690" height="120" as="geometry"/>
                </mxCell>
                <mxCell id="6" value="NavBar" style="rounded=0;whiteSpace=wrap;html=1;" parent="1" vertex="1">
                    <mxGeometry x="50" y="50" width="690" height="120" as="geometry"/>
                </mxCell>
                <mxCell id="8" value="My Memes" style="rounded=0;whiteSpace=wrap;html=1;" parent="1" vertex="1">
                    <mxGeometry x="620" y="120" width="100" height="40" as="geometry"/>
                </mxCell>
                <mxCell id="9" value="search for a meme (ex Condescending Wonka )" style="rounded=0;whiteSpace=wrap;html=1;" parent="1" vertex="1">
                    <mxGeometry x="305" y="200" width="415" height="60" as="geometry"/>
                </mxCell>
                <mxCell id="10" value="Meme Container (Click a meme and add some text!)&amp;nbsp;" style="rounded=0;whiteSpace=wrap;html=1;" parent="1" vertex="1">
                    <mxGeometry x="50" y="280" width="690" height="230" as="geometry"/>
                </mxCell>
                <mxCell id="16" style="edgeStyle=none;html=1;entryX=0.45;entryY=0;entryDx=0;entryDy=0;entryPerimeter=0;exitX=0;exitY=0.5;exitDx=0;exitDy=0;" parent="1" source="11" target="12" edge="1">
                    <mxGeometry relative="1" as="geometry">
                        <mxPoint x="-480" y="25" as="sourcePoint"/>
                    </mxGeometry>
                </mxCell>
                <mxCell id="17" style="edgeStyle=none;html=1;entryX=0.5;entryY=0;entryDx=0;entryDy=0;" parent="1" target="13" edge="1">
                    <mxGeometry relative="1" as="geometry">
                        <mxPoint x="-400" y="60" as="sourcePoint"/>
                    </mxGeometry>
                </mxCell>
                <mxCell id="21" style="edgeStyle=none;html=1;entryX=0.625;entryY=-0.05;entryDx=0;entryDy=0;entryPerimeter=0;exitX=1;exitY=0.75;exitDx=0;exitDy=0;" parent="1" source="11" target="20" edge="1">
                    <mxGeometry relative="1" as="geometry">
                        <mxPoint x="-340" y="90" as="sourcePoint"/>
                    </mxGeometry>
                </mxCell>
                <mxCell id="39" style="edgeStyle=none;html=1;exitX=1;exitY=1;exitDx=0;exitDy=0;entryX=0.5;entryY=0;entryDx=0;entryDy=0;" parent="1" source="11" target="37" edge="1">
                    <mxGeometry relative="1" as="geometry"/>
                </mxCell>
                <mxCell id="11" value="App" style="rounded=0;whiteSpace=wrap;html=1;" parent="1" vertex="1">
                    <mxGeometry x="-470" y="10" width="120" height="60" as="geometry"/>
                </mxCell>
                <mxCell id="12" value="NavBar&lt;br&gt;links to &quot;my memes&quot;, search GIFS, and &quot;how to make a meme&quot;&amp;nbsp;" style="rounded=0;whiteSpace=wrap;html=1;" parent="1" vertex="1">
                    <mxGeometry x="-840" y="125" width="131" height="70" as="geometry"/>
                </mxCell>
                <mxCell id="24" style="edgeStyle=none;html=1;entryX=0.5;entryY=0;entryDx=0;entryDy=0;" parent="1" source="13" target="23" edge="1">
                    <mxGeometry relative="1" as="geometry"/>
                </mxCell>
                <mxCell id="13" value="Meme Container ✅" style="rounded=0;whiteSpace=wrap;html=1;" parent="1" vertex="1">
                    <mxGeometry x="-470" y="140" width="120" height="60" as="geometry"/>
                </mxCell>
                <mxCell id="20" value="Search Bar&lt;br&gt;(can search memes by titles)&amp;nbsp;" style="rounded=0;whiteSpace=wrap;html=1;" parent="1" vertex="1">
                    <mxGeometry x="-300" y="135" width="120" height="60" as="geometry"/>
                </mxCell>
                <mxCell id="46" style="edgeStyle=none;html=1;exitX=0.5;exitY=1;exitDx=0;exitDy=0;entryX=0.5;entryY=0;entryDx=0;entryDy=0;" parent="1" source="23" target="44" edge="1">
                    <mxGeometry relative="1" as="geometry"/>
                </mxCell>
                <mxCell id="23" value="Meme Cards&amp;nbsp;&lt;br&gt;(will be &quot;submitted&quot; like forms to the &quot;see my memes&quot; page)&amp;nbsp;" style="rounded=0;whiteSpace=wrap;html=1;" parent="1" vertex="1">
                    <mxGeometry x="-470" y="280" width="120" height="60" as="geometry"/>
                </mxCell>
                <mxCell id="28" style="edgeStyle=none;html=1;exitX=0;exitY=0;exitDx=0;exitDy=0;entryX=0;entryY=0.25;entryDx=0;entryDy=0;" parent="1" source="11" target="11" edge="1">
                    <mxGeometry relative="1" as="geometry"/>
                </mxCell>
                <mxCell id="29" value="Directions: How to make a Meme" style="rounded=0;whiteSpace=wrap;html=1;" parent="1" vertex="1">
                    <mxGeometry x="490" y="120" width="100" height="40" as="geometry"/>
                </mxCell>
                <mxCell id="30" value="Footer - Made by Kim &amp;amp; Nicole February 2022" style="rounded=0;whiteSpace=wrap;html=1;" parent="1" vertex="1">
                    <mxGeometry x="40" y="530" width="700" height="30" as="geometry"/>
                </mxCell>
                <mxCell id="36" value="&lt;span style=&quot;color: rgb(240 , 240 , 240) ; font-family: &amp;#34;helvetica&amp;#34; ; font-size: 12px ; font-style: normal ; font-weight: 400 ; letter-spacing: normal ; text-align: center ; text-indent: 0px ; text-transform: none ; word-spacing: 0px ; background-color: rgb(42 , 42 , 42) ; display: inline ; float: none&quot;&gt;State:&amp;nbsp;&lt;/span&gt;&lt;br style=&quot;color: rgb(240 , 240 , 240) ; font-family: &amp;#34;helvetica&amp;#34; ; font-size: 12px ; font-style: normal ; font-weight: 400 ; letter-spacing: normal ; text-align: center ; text-indent: 0px ; text-transform: none ; word-spacing: 0px ; background-color: rgb(42 , 42 , 42)&quot;&gt;&lt;span style=&quot;color: rgb(240 , 240 , 240) ; font-family: &amp;#34;helvetica&amp;#34; ; font-size: 12px ; font-style: normal ; font-weight: 400 ; letter-spacing: normal ; text-align: center ; text-indent: 0px ; text-transform: none ; word-spacing: 0px ; background-color: rgb(42 , 42 , 42) ; display: inline ; float: none&quot;&gt;No state in &quot;directions&quot; or footer components&amp;nbsp;&lt;/span&gt;&lt;br style=&quot;color: rgb(240 , 240 , 240) ; font-family: &amp;#34;helvetica&amp;#34; ; font-size: 12px ; font-style: normal ; font-weight: 400 ; letter-spacing: normal ; text-align: center ; text-indent: 0px ; text-transform: none ; word-spacing: 0px ; background-color: rgb(42 , 42 , 42)&quot;&gt;&lt;span style=&quot;color: rgb(240 , 240 , 240) ; font-family: &amp;#34;helvetica&amp;#34; ; font-size: 12px ; font-style: normal ; font-weight: 400 ; letter-spacing: normal ; text-align: center ; text-indent: 0px ; text-transform: none ; word-spacing: 0px ; background-color: rgb(42 , 42 , 42) ; display: inline ; float: none&quot;&gt;* in App - fetched data for Memes - will need to be passed to the&amp;nbsp; meme container, search bar( will have ot make a filtered list in the app if search bar),&amp;nbsp;&lt;/span&gt;&lt;br style=&quot;color: rgb(240 , 240 , 240) ; font-family: &amp;#34;helvetica&amp;#34; ; font-size: 12px ; font-style: normal ; font-weight: 400 ; letter-spacing: normal ; text-align: center ; text-indent: 0px ; text-transform: none ; word-spacing: 0px ; background-color: rgb(42 , 42 , 42)&quot;&gt;&lt;span style=&quot;color: rgb(240 , 240 , 240) ; font-family: &amp;#34;helvetica&amp;#34; ; font-size: 12px ; font-style: normal ; font-weight: 400 ; letter-spacing: normal ; text-align: center ; text-indent: 0px ; text-transform: none ; word-spacing: 0px ; background-color: rgb(42 , 42 , 42) ; display: inline ; float: none&quot;&gt;*&amp;nbsp;&lt;/span&gt;" style="rounded=1;whiteSpace=wrap;html=1;" parent="1" vertex="1">
                    <mxGeometry x="-1180" y="475" width="320" height="140" as="geometry"/>
                </mxCell>
                <mxCell id="37" value="GIFs&amp;nbsp; page (STRETCH GOAL)" style="rounded=0;whiteSpace=wrap;html=1;" parent="1" vertex="1">
                    <mxGeometry x="-130" y="110" width="120" height="60" as="geometry"/>
                </mxCell>
                <mxCell id="41" value="Home" style="rounded=0;whiteSpace=wrap;html=1;" parent="1" vertex="1">
                    <mxGeometry x="380.5" y="120" width="90" height="40" as="geometry"/>
                </mxCell>
                <mxCell id="43" value="Need To Dos :&amp;nbsp;&lt;br&gt;&lt;br&gt;- form pop up, integrating form&amp;nbsp;&lt;br&gt;- post request / create the see my memes page&lt;br&gt;- meme directions&amp;nbsp;&lt;br&gt;&lt;br&gt;*styling*&amp;nbsp;&lt;br&gt;&lt;br&gt;Working so far:&amp;nbsp;&lt;br&gt;✅search bar&lt;br&gt;✅meme cards&lt;br&gt;✅meme care clickable&lt;br&gt;✅routes are working&lt;br&gt;" style="rounded=0;whiteSpace=wrap;html=1;" parent="1" vertex="1">
                    <mxGeometry x="-1130" y="160" width="250" height="270" as="geometry"/>
                </mxCell>
                <mxCell id="47" style="edgeStyle=none;html=1;exitX=0.5;exitY=1;exitDx=0;exitDy=0;" parent="1" source="44" target="45" edge="1">
                    <mxGeometry relative="1" as="geometry"/>
                </mxCell>
                <mxCell id="44" value="Pop Up" style="rounded=0;whiteSpace=wrap;html=1;" parent="1" vertex="1">
                    <mxGeometry x="-410" y="390" width="120" height="60" as="geometry"/>
                </mxCell>
                <mxCell id="45" value="Form Pop Up&amp;nbsp;" style="rounded=0;whiteSpace=wrap;html=1;" parent="1" vertex="1">
                    <mxGeometry x="-360" y="500" width="120" height="60" as="geometry"/>
                </mxCell>
                <mxCell id="50" style="edgeStyle=none;html=1;exitX=0.75;exitY=0;exitDx=0;exitDy=0;" parent="1" source="49" target="11" edge="1">
                    <mxGeometry relative="1" as="geometry"/>
                </mxCell>
                <mxCell id="53" style="edgeStyle=none;html=1;exitX=0.25;exitY=1;exitDx=0;exitDy=0;" parent="1" source="49" target="51" edge="1">
                    <mxGeometry relative="1" as="geometry"/>
                </mxCell>
                <mxCell id="49" value="See My Memes" style="rounded=0;whiteSpace=wrap;html=1;" parent="1" vertex="1">
                    <mxGeometry x="-630" y="110" width="120" height="60" as="geometry"/>
                </mxCell>
                <mxCell id="54" style="edgeStyle=none;html=1;exitX=0.25;exitY=1;exitDx=0;exitDy=0;entryX=0.25;entryY=0;entryDx=0;entryDy=0;" parent="1" source="51" target="52" edge="1">
                    <mxGeometry relative="1" as="geometry"/>
                </mxCell>
                <mxCell id="51" value="NewMemesContainer" style="rounded=0;whiteSpace=wrap;html=1;" parent="1" vertex="1">
                    <mxGeometry x="-680" y="240" width="120" height="60" as="geometry"/>
                </mxCell>
                <mxCell id="52" value="NewMemesCard" style="rounded=0;whiteSpace=wrap;html=1;" parent="1" vertex="1">
                    <mxGeometry x="-720" y="350" width="120" height="60" as="geometry"/>
                </mxCell>
            </root>
        </mxGraphModel>
    </diagram>
</mxfile>